<?xml version="1.0" encoding="UTF-8"?> <!-- Generator: Adobe Illustrator 21.1.0, SVG Export Plug-In . SVG Version: 6.00 Build 0) --> <svg xmlns="http://www.w3.org/2000/svg" xmlns:xlink="http://www.w3.org/1999/xlink" id="Layer_1" x="0px" y="0px" viewBox="0 0 300 300" style="enable-background:new 0 0 300 300;" xml:space="preserve"> <style type="text/css"> .st0{fill:#00007A;} </style> <g> <path class="st0" d="M189.2,191.4c4.7,0,9.1-1.8,12.4-5.1c3.3-3.3,5.1-7.7,5.1-12.4c0-4.7-1.8-9.1-5.2-12.4 c-3.3-3.3-7.8-5.2-12.4-5.2c-4.7,0-9.1,1.8-12.4,5.2l0,0c-3.3,3.3-5.2,7.7-5.2,12.4c0,4.7,1.8,9.1,5.2,12.4 C180.1,189.6,184.6,191.4,189.2,191.4z M181.6,166.2c2-2,4.8-3.2,7.7-3.2c2.9,0,5.6,1.1,7.7,3.2c2,2.1,3.2,4.8,3.2,7.7 c0,2.9-1.1,5.6-3.2,7.7c-2.1,2-4.8,3.2-7.7,3.2c-2.9,0-5.6-1.1-7.7-3.2c-2-2-3.2-4.8-3.2-7.7C178.4,170.9,179.5,168.2,181.6,166.2z "></path> <path class="st0" d="M243.5,143h-2.8v-35.8c0-4.1-1.6-7.9-4.5-10.8l-0.3-0.3h0c-2.9-2.7-6.6-4.2-10.5-4.2h-4.2l-9.4-28.8 c0-0.1-0.1-0.3-0.1-0.4c-0.8-2.3-2.4-4.1-4.6-5.2c-2.2-1.1-4.6-1.3-6.9-0.6c-0.2,0-0.3,0.1-0.4,0.1l-46.5,15.2l-12.9-18.6 c-1.4-2.1-3.6-3.4-6-3.9c-2.5-0.4-5,0.1-7,1.5L68.6,91.9h-0.1c-4.1,0-7.9,1.6-10.8,4.5c-2.9,2.9-4.5,6.7-4.5,10.8v128 c0,4.1,1.6,7.9,4.5,10.9c2.9,2.9,6.7,4.5,10.8,4.5h157c4.1,0,7.9-1.6,10.8-4.5c2.9-2.9,4.5-6.7,4.5-10.8v-30.5h2.8 c1.9,0,3.4-1.5,3.4-3.4v-54.9C246.9,144.5,245.4,143,243.5,143z M201.8,63.4l0.2-0.1c0.7-0.2,1.4-0.2,2,0.1 c0.6,0.3,1.1,0.9,1.3,1.5l8.8,26.8h-7l-6.3-19.2c-0.3-0.9-0.9-1.6-1.7-2c-0.8-0.4-1.7-0.5-2.6-0.2l-65.3,21.4h-16.3L201.8,63.4z M196.1,85.9c-0.6-1.8-2.5-2.7-4.3-2.2l-24.8,8.1H153L195.4,78l4.5,13.9h-11.1l5.1-1.7c0.9-0.3,1.6-0.9,2-1.7 C196.3,87.7,196.4,86.8,196.1,85.9z M111.7,85.8l17.2-11.9l3.5,5.1L111.7,85.8z M131.3,56.8c0.6-0.4,1.3-0.5,1.9-0.4 c0.7,0.1,1.3,0.5,1.7,1.1l11.7,17l-7.4,2.4l-6.6-9.5c-0.5-0.7-1.3-1.2-2.2-1.4c-0.9-0.2-1.8,0-2.5,0.5L91,91.9H80.5L131.3,56.8z M234,235.1c0,2.3-0.9,4.4-2.5,6c-1.6,1.6-3.8,2.5-6,2.5h-157c-2.3,0-4.4-0.9-6.1-2.5c-1.6-1.6-2.5-3.8-2.5-6v-128 c0-2.3,0.9-4.4,2.5-6.1c1.6-1.6,3.8-2.5,6-2.5h157c2.3,0,4.4,0.9,6,2.5l0.1,0.1c1.5,1.6,2.4,3.7,2.4,5.9V143h-69.2 c-2.5,0-4.9,1-6.6,2.8l-0.1,0.1c-1.7,1.8-2.6,4-2.6,6.4v42.9c0,2.4,0.9,4.6,2.5,6.3l0.3,0.3c1.8,1.8,4.1,2.7,6.6,2.7H234V235.1z M240.1,197.9h-75.4c-0.7,0-1.3-0.3-1.8-0.7c-0.5-0.5-0.8-1.2-0.8-1.8v-42.9c0-0.6,0.2-1.3,0.7-1.8l0.1-0.1 c0.5-0.5,1.2-0.8,1.8-0.8h75.4V197.9z"></path> </g> </svg> 