<?xml version="1.0" encoding="UTF-8"?> <!-- Generator: Adobe Illustrator 21.1.0, SVG Export Plug-In . SVG Version: 6.00 Build 0) --> <svg xmlns="http://www.w3.org/2000/svg" xmlns:xlink="http://www.w3.org/1999/xlink" id="Layer_1" x="0px" y="0px" viewBox="0 0 300 300" style="enable-background:new 0 0 300 300;" xml:space="preserve"> <style type="text/css"> .st0{fill:#00007A;} </style> <g> <path class="st0" d="M185.8,215.9h-73.1c-1.8,0-3.2,1.4-3.2,3.2c0,1.8,1.4,3.2,3.2,3.2h73.1c1.8,0,3.2-1.4,3.2-3.2 C189,217.4,187.6,215.9,185.8,215.9z"></path> <path class="st0" d="M272.6,211c-1.7-1.7-3.8-2.6-6.2-2.6h-8.6V78.1c0-2.3-0.9-4.6-2.6-6.2c-1.7-1.7-3.8-2.6-6.2-2.6H50.9 c-2.3,0-4.5,0.9-6.2,2.6c-1.7,1.7-2.6,3.9-2.6,6.2v130.3h-8.6c-2.3,0-4.5,0.9-6.2,2.6c-0.1,0.1-0.1,0.1-0.1,0.2 c-1.6,1.6-2.4,3.8-2.4,6v4.8c0,2.3,0.9,4.5,2.6,6.2l0.1,0.1c1.7,1.6,3.8,2.5,6.1,2.5h232.9c2.2,0,4.3-0.8,5.9-2.3l0.3-0.3 c1.7-1.7,2.6-3.8,2.6-6.2v-4.8C275.2,214.8,274.3,212.6,272.6,211z M48.6,78.1c0-0.6,0.2-1.2,0.7-1.6c0.5-0.4,1.1-0.7,1.7-0.7 h198.2c0.6,0,1.2,0.3,1.6,0.7c0.4,0.4,0.7,1,0.7,1.6v130.3H48.6V78.1z M268.8,221.9c0,0.6-0.2,1.2-0.7,1.6l-0.1,0.1 c-0.4,0.4-1,0.6-1.5,0.6H33.5c-0.6,0-1.2-0.2-1.6-0.7c-0.4-0.4-0.7-1-0.7-1.7v-4.8c0-0.6,0.2-1.2,0.6-1.6l0.1-0.1 c0.4-0.4,1-0.7,1.6-0.7h232.9c0.6,0,1.2,0.2,1.6,0.7c0.4,0.4,0.7,1,0.7,1.6V221.9z"></path> <path class="st0" d="M243.4,80H56.6c-1.8,0-3.2,1.4-3.2,3.2V201c0,1.8,1.4,3.2,3.2,3.2h186.9c1.8,0,3.2-1.4,3.2-3.2V83.2 C246.6,81.4,245.2,80,243.4,80z M240.2,197.7H59.8V86.4h180.4V197.7z"></path> <path class="st0" d="M104.9,158.7l4.3-12.7c0.5-1.5,1-3,1.4-4.6c0.4,1.5,0.9,3,1.4,4.6l4.1,12.8h5.7l8.6-26.8l8.1,26.8h5.7 l4.3-12.7c0.5-1.4,1-3,1.4-4.6c0.4,1.5,0.9,3,1.4,4.6l4.1,12.8h5.7l8.6-26.8l8.1,26.8h5.7l4.3-12.7c0.5-1.5,1-3,1.4-4.6 c0.4,1.5,0.9,3,1.4,4.6l4.1,12.8h5.7l8.8-27.4h-6.7l-3.8,13.5c-0.5,1.6-0.8,3.1-1.1,4.3c-0.4-1.4-0.8-2.8-1.3-4.4l-4.2-13.4h-5.3 l-4.4,13.6l0,0.1c-0.4,1.4-0.9,2.8-1.3,4.2c-0.3-1.4-0.7-2.7-1-4.2l-3.6-13.8h-6.5h-0.3h-6.3l-3.8,13.5c-0.4,1.3-0.8,2.8-1.1,4.3 c-0.4-1.4-0.8-2.8-1.3-4.4l-4.2-13.4h-5.3L143,145l-0.1,0.2c-0.4,1.4-0.8,2.7-1.2,4.1c-0.3-1.4-0.7-2.7-1-4.1l-3.6-13.8h-6.5h-0.3 h-6.3l-3.8,13.5c-0.4,1.3-0.8,2.8-1.1,4.3c-0.4-1.4-0.8-2.8-1.3-4.4l-4.2-13.4h-5.3l-4.4,13.6l-0.1,0.2c-0.4,1.4-0.8,2.7-1.2,4.1 c-0.3-1.4-0.7-2.7-1-4.2l-3.6-13.8H91l8.3,27.4H104.9z"></path> </g> </svg> 