<?xml version="1.0" encoding="UTF-8"?> <!-- Generator: Adobe Illustrator 21.1.0, SVG Export Plug-In . SVG Version: 6.00 Build 0) --> <svg xmlns="http://www.w3.org/2000/svg" xmlns:xlink="http://www.w3.org/1999/xlink" id="Layer_1" x="0px" y="0px" viewBox="0 0 300 300" style="enable-background:new 0 0 300 300;" xml:space="preserve"> <style type="text/css"> .st0{fill:#00007A;} </style> <path class="st0" d="M245,106.5l-25.3-9.9c0.2-0.2,0.4-0.3,0.6-0.5c1.6-1.3,3.8-4.5,1.6-10.5c-1.5-3.9-4.4-7.7-6.5-10.2 c-4-4.7-9.1-9.2-13.7-11.9c-6.2-3.7-11.2-4.1-14.4-1.3c-3.3,2.8-9.5,8.9-15.4,15.7c0,0,0,0-0.1,0l-20.4-8.2c-0.8-0.3-1.7-0.3-2.6,0 l-16.3,6.4c0,0-0.1,0-0.1,0c-5.9-7.3-12.5-14.5-16.8-18c-7.2-6.1-20.8,4.5-28.1,13.2c-2.2,2.5-5,6.4-6.5,10.2c-2.3,6,0,9.1,1.6,10.5 c0.9,0.8,2,1.6,3.2,2.4l-30.7,12c-1.4,0.5-2.2,1.8-2.2,3.3v28.5c0,1.5,0.9,2.7,2.2,3.3l5.9,2.3v63.7c0,1.4,0.9,2.8,2.3,3.3 l85.6,32.6c0.4,0.2,0.8,0.2,1.2,0.2s0.8-0.1,1.2-0.2l85.6-32.6c1.3-0.5,2.3-1.8,2.3-3.3v-63.7l5.9-2.3c1.4-0.5,2.2-1.8,2.2-3.3 v-28.5C247.2,108.3,246.4,107,245,106.5z M191.7,67.6L191.7,67.6c0.5-0.4,2.7-0.2,6.6,2.2c3.9,2.4,8.1,6.1,11.6,10.2 c2.5,3,4.4,5.9,5.3,8.2c0.6,1.6,0.6,2.5,0.4,2.6c-9.2,7.8-30.5,14.9-42.5,17c-0.7-2.4-2-4.7-4-6.7c-1-1-2.2-2-3.5-2.8 C168.6,91.3,183.6,74.5,191.7,67.6z M134.5,125.5c4.2,2.6,9.6,4.1,15.1,4.1c4.7,0,9.3-1,13.2-3l12.2,5.7l0,29.1l-25,9.8l-29.1-11.4 v-27.5L134.5,125.5z M133.1,111.8c0.1-5.9,8-10.8,17.1-10.8c5.7,0,10.9,1.9,14,5c1.2,1.2,2.6,3.2,2.5,5.7c-0.1,5.9-8,10.8-17.1,10.8 c-5.7,0-10.9-1.9-14-5C134.5,116.3,133.1,114.4,133.1,111.8z M150,76.8l17.1,6.8c-3.7,4.8-6.3,8.7-7.6,11.7 c-2.9-0.9-6.1-1.4-9.2-1.4c-1.9,0-3.8,0.2-5.7,0.5c-1.5-3.8-4.9-8.7-7.7-12.6L150,76.8z M87.5,84.1c0.9-2.3,2.8-5.2,5.3-8.2 c3.5-4.1,7.7-7.8,11.6-10.2c3.9-2.4,6.1-2.6,6.6-2.2c8.1,6.9,23.4,25.4,26.8,33.1c-4.4,2-7.9,4.9-9.8,8.5 c-11.5-3-31.3-10.1-40.9-18.4C86.9,86.5,86.9,85.7,87.5,84.1z M93.5,214.9l-25.6-9.8v-58.6l25.6,10V214.9z M93.5,122v27.1 l-33.8-13.2v-23.8l33.4-13.1c6,3.3,13.7,6.6,21.8,9.3l-19.6,10.5C94.2,119.5,93.5,120.7,93.5,122z M113.9,130.1l0,31.9 c0,0.2,0,0.3,0,0.4v60.3l-13.4-5.1v-63.2c0-0.1,0-0.2,0-0.2v-30l23.8-12.7c0.6,0.2,1.2,0.3,1.8,0.5c0,3,0.9,6,2.8,8.6l-13.1,6.6 C114.6,127.6,113.9,128.8,113.9,130.1z M150,236.4l-29.1-11.1v-58l27.8,10.9c0.8,0.3,1.7,0.3,2.5,0l23.8-9.3l0,58L150,236.4z M195.4,219.1l-13.4,5.1l0-94.1c0-1.3-0.8-2.6-2-3.2l-10.7-5c2-2.1,3.4-4.5,4-7c1.2-0.2,2.6-0.5,4-0.8l18.1,9.9V219.1z M232.1,205.1 l-29.7,11.3v-58.3l29.7-11.6V205.1z M240.2,135.9l-37.8,14.8V122c0-1.3-0.7-2.5-1.8-3.1l-13.3-7.3c9.6-2.8,18.7-6.5,25.3-10.3 l27.7,10.8V135.9z"></path> </svg> 